<?xml version="1.0" encoding="UTF-8"?>
<svg xmlns="http://www.w3.org/2000/svg" viewBox="0 0 438.3 473.25">
  <defs>
    <style>
      .cls-1 {
        fill: #fddec0;
        opacity: .6;
      }

      .cls-2 {
        fill: #965450;
      }

      .cls-3 {
        fill: #fc6a5a;
      }

      .cls-4 {
        fill: #4e7fa8;
        opacity: .5;
      }

      .cls-5 {
        fill: #f19c7c;
      }

      .cls-6 {
        opacity: .3;
      }

      .cls-6, .cls-7 {
        fill: #352c38;
      }

      .cls-8 {
        fill: #765e69;
      }

      .cls-9 {
        fill: #6f96bd;
      }

      .cls-10 {
        fill: #76413b;
      }

      .cls-11 {
        fill: #ffac9d;
      }
    </style>
  </defs>
  <g id="BACKGROUND">
    <path class="cls-1" d="m15.11,209.22S6.76,80.41,128.64,20.14c121.88-60.27,335.23,13.83,287.99,234.67-39.01,182.39-243.03,162.2-317.09,114.51C47.01,335.5,12.05,254.07,15.11,209.22Z"/>
  </g>
  <g id="OBJECTS">
    <g>
      <g>
        <path class="cls-8" d="m159.95,316.96s5.27,96.01,18.61,156.29h52.67l-6.98-84.92h10.93l29.84,84.92h52.21s-33.82-131.85-38.32-162.72c-4.5-30.86-118.95,6.43-118.95,6.43Z"/>
        <g>
          <path class="cls-6" d="m284.23,338.85c-2.35-11.18-4.29-21.18-5.33-28.31-4.5-30.86-118.95,6.43-118.95,6.43,0,0,.46,7.76,1.46,19.73,10.12,2.86,50.62,17.56,122.81,2.15Z"/>
          <path class="cls-6" d="m226.01,405.4l-1.74-16.85c-2.4-.07-4.8-.15-7.2-.28-10.58-.54-21.02-1.74-31.34-3.63,10.56,10.55,25.38,16.66,40.28,20.76Z"/>
        </g>
      </g>
      <g>
        <g>
          <g>
            <g>
              <path class="cls-11" d="m278.11,212.22s11.96,85.56,29.42,83.16c42.79-5.86,92.85-87.26,75.26-89.02-7.93-.79-54.85,35.16-54.85,35.16,0,0-15.83-85.58-35.17-82.65-19.34,2.93-14.65,53.34-14.65,53.34Z"/>
              <path class="cls-5" d="m301.26,234.88c-5.65,2.76-11.48,4.76-17.43,6.03-3.6-15.75-5.72-28.7-5.72-28.7,0,0-4.69-50.41,14.65-53.34,13.02-1.97,24.45,36.17,30.53,61.31-6.82,5.66-14.08,10.8-22.03,14.69Z"/>
            </g>
            <g>
              <g>
                <path class="cls-11" d="m372.52,212.58s5.43-7.4,14.01-6.65c8.57.75,16.68,3.37,16.68,3.37,0,0,14.38-2.58,15.46.28,1.08,2.86-11.99,5.76-11.99,5.76l-5.39.05-.82-.67s13.33,4.8,18.24,7.42c0,0,10.45-8.34,16.63-6.79,0,0-7.92,8.57-10.68,10.07-2.76,1.5-.75-1.78-.75-1.78,0,0,9.04-7.5,14.1-3.84l-10.31,6.98,5.15-5.48s3.93-1.41,4.4,2.29c0,0-18.22,10.78-21.45,10.17-3.23-.61-27.26-1.64-39.35-6.65-12.09-5.01-11.06-9.93-3.94-14.52Z"/>
                <path class="cls-5" d="m406.68,215.34l-5.11.05c-3.01-4.12-9.13-9.63-20.01-8.98,1.51-.42,3.17-.64,4.98-.48,8.57.75,16.68,3.37,16.68,3.37,0,0,14.38-2.58,15.46.28,1.08,2.86-11.99,5.76-11.99,5.76Z"/>
              </g>
              <g>
                <path class="cls-3" d="m413.43,227.35c1.31-.55,2.65-1.03,4-1.49,1.35-.46,2.71-.87,4.1-1.21,1.39-.34,2.79-.63,4.24-.75.72-.05,1.46-.08,2.21.05.37.07.76.17,1.12.37.36.19.71.52.89.93l.14.31-.3.17c-2.33,1.36-4.68,2.66-7.07,3.91-2.41,1.21-4.84,2.39-7.39,3.33-.64.23-1.29.45-1.96.61-.34.08-.68.15-1.04.18-.34.02-.66.06-1.02.06-1.39.02-2.73-.1-4.07-.27-1.34-.17-2.67-.4-3.99-.69-1.32-.28-2.63-.59-3.92-.96,2.64.49,5.3.88,7.96,1.12,1.33.11,2.67.18,3.97.1.32,0,.66-.06.99-.1.31-.03.62-.1.94-.18.63-.16,1.25-.38,1.87-.61,2.48-.95,4.88-2.16,7.26-3.38,2.39-1.21,4.75-2.48,7.08-3.8l-.16.49c-.19-.48-.8-.76-1.44-.87-.65-.12-1.34-.14-2.03-.11-1.39.06-2.78.29-4.17.58-2.76.59-5.5,1.34-8.21,2.2Z"/>
                <path class="cls-3" d="m424.87,224.47c1.01-.65,2.07-1.22,3.15-1.75,1.08-.53,2.2-1,3.36-1.36,1.16-.34,2.37-.64,3.67-.5.32.04.65.12.96.25.16.07.31.16.46.24.13.11.28.21.4.34.24.26.43.56.55.88.13.32.19.65.24.97l.04.23-.22.14c-1.95,1.22-3.91,2.39-5.9,3.53-2,1.11-4.02,2.2-6.08,3.21-1.03.51-2.06,1-3.13,1.44-.53.23-1.06.44-1.6.64-.53.21-1.08.41-1.63.57-.54.19-1.11.33-1.68.45-.28.08-.58.09-.87.12-.29.02-.59.06-.88.02l-1.71-.16-.85-.1-.21-.03-.11-.02s-.03.03-.03-.06c.02,0,.03,0,.04,0h.06s.43.01.43.01l-.43.03s-.09.05-.05-.03h.1s.21.02.21.02l.86.02,1.71.03c.28.02.55-.04.83-.09.27-.04.55-.08.81-.17.54-.15,1.08-.3,1.61-.52.53-.19,1.06-.4,1.57-.64.52-.22,1.04-.45,1.55-.71.51-.24,1.02-.49,1.53-.75.51-.26,1.02-.5,1.53-.76,2.03-1.04,4.02-2.15,5.99-3.28,1.99-1.12,3.97-2.25,5.92-3.43l-.18.37c-.04-.27-.08-.53-.18-.77-.09-.24-.22-.45-.39-.64-.08-.09-.19-.16-.28-.25-.11-.06-.22-.13-.33-.19-.24-.11-.49-.18-.77-.23-1.1-.18-2.29.04-3.42.32-2.28.62-4.5,1.54-6.65,2.61Z"/>
                <path class="cls-3" d="m436.14,221.39c.57-.68,1.18-1.34,1.77-2l-.02.24c-.25-.24-.68-.42-1.08-.52-.41-.1-.85-.14-1.28-.16-.87-.02-1.75.08-2.62.22-.45.09-.85.15-1.29.29-.44.11-.88.22-1.29.37-.41.15-.83.27-1.24.44l-1.25.49c-.41.17-.82.36-1.23.54-.41.18-.82.35-1.22.56-.81.39-1.61.78-2.4,1.22-.39.22-.8.41-1.18.65l-1.17.68c-.79.44-1.51.98-2.3,1.44.68-.6,1.35-1.22,2.08-1.76l1.1-.81c.36-.28.76-.5,1.14-.75.76-.5,1.56-.95,2.36-1.38.8-.45,1.64-.81,2.47-1.19l1.27-.52c.42-.17.88-.3,1.32-.45.44-.16.88-.26,1.32-.36.43-.12.93-.18,1.37-.25.92-.12,1.85-.17,2.78-.08.47.05.93.14,1.39.3.45.18.89.36,1.24.81l.1.14-.13.11c-.68.58-1.34,1.17-2.03,1.73Z"/>
                <path class="cls-3" d="m432.46,218.28s.25-.25.69-.69c.44-.43,1.08-1.07,1.74-1.86.08-.1.16-.2.21-.3.03-.02.02-.13.02.02.01.06.06.1.09.12.02.01.03.02.07.03h-.03s-.11-.02-.11-.02c-.29-.06-.57-.06-.85-.06-.56-.04-1.2.09-1.84.11-.63.13-1.29.27-1.96.41-.65.21-1.31.42-1.97.63-.66.23-1.28.55-1.91.82-.32.14-.63.27-.94.41-.31.14-.59.32-.88.48-.57.32-1.13.63-1.66.92-.27.15-.52.29-.77.42-.24.16-.46.31-.68.46-1.76,1.18-2.98,1.93-2.98,1.93,0,0,1.04-.96,2.69-2.34.21-.17.42-.35.64-.54.24-.16.49-.32.75-.49.52-.33,1.07-.68,1.63-1.05.29-.17.57-.37.88-.53.31-.15.63-.3.95-.45.65-.28,1.29-.63,1.97-.87.69-.21,1.39-.42,2.07-.63.7-.15,1.4-.24,2.07-.35.69-.01,1.33-.09,1.99,0,.32.03.64.06.91.14l.1.03h.03c.05.02.08.04.12.06.07.04.12.11.15.2.03.3-.07.31-.1.41-.1.14-.2.24-.29.35-.78.77-1.52,1.27-2.01,1.65-.5.37-.8.56-.8.56Z"/>
              </g>
            </g>
          </g>
          <g>
            <path class="cls-9" d="m269.87,144.65s25.72-15.43,37.94,2.57c12.22,18,20.58,55.94,20.58,55.94,0,0-21.22,24.43-48.22,21.86-27-2.57-10.29-80.37-10.29-80.37Z"/>
            <path class="cls-4" d="m269.98,186.98c12.44-3.89,18.87-18.24,31.42-21.75,1.32,12.02,7.39,33.02.74,43.9-3.83,6.25-8.81,11.27-14.2,15.92-2.53.22-5.13.24-7.78-.02-12.45-1.19-15.6-18.35-15.39-36.52,1.75-.48,3.49-.98,5.22-1.52Z"/>
          </g>
        </g>
        <g>
          <g>
            <g>
              <path class="cls-11" d="m160.19,210.41s-11.96,85.56-29.42,83.16c-42.79-5.86-92.85-87.26-75.26-89.02,7.93-.79,54.85,35.16,54.85,35.16,0,0,15.83-85.58,35.17-82.65s14.65,53.34,14.65,53.34Z"/>
              <path class="cls-5" d="m137.04,233.07c5.65,2.76,11.48,4.76,17.43,6.03,3.6-15.75,5.72-28.7,5.72-28.7,0,0,4.69-50.41-14.65-53.34-13.02-1.97-24.45,36.17-30.53,61.31,6.82,5.66,14.08,10.8,22.03,14.69Z"/>
            </g>
            <g>
              <g>
                <path class="cls-11" d="m65.78,210.77s-5.43-7.4-14.01-6.65c-8.57.75-16.68,3.37-16.68,3.37,0,0-14.38-2.58-15.46.28-1.08,2.86,11.99,5.76,11.99,5.76l5.39.05.82-.67s-13.33,4.8-18.24,7.42c0,0-10.45-8.34-16.63-6.79,0,0,7.92,8.57,10.68,10.07,2.76,1.5.75-1.78.75-1.78,0,0-9.04-7.5-14.1-3.84l10.31,6.98-5.15-5.48s-3.93-1.41-4.4,2.29c0,0,18.22,10.78,21.45,10.17,3.23-.61,27.26-1.64,39.35-6.65,12.09-5.01,11.06-9.93,3.94-14.52Z"/>
                <path class="cls-5" d="m31.62,213.52l5.11.05c3.01-4.12,9.13-9.63,20.01-8.98-1.51-.42-3.17-.64-4.98-.48-8.57.75-16.68,3.37-16.68,3.37,0,0-14.38-2.58-15.46.28s11.99,5.76,11.99,5.76Z"/>
              </g>
              <g>
                <path class="cls-3" d="m24.87,225.53c-2.71-.86-5.45-1.61-8.21-2.2-1.38-.28-2.78-.51-4.17-.58-.69-.03-1.39,0-2.03.11-.64.12-1.25.39-1.44.87l-.16-.49c2.33,1.32,4.69,2.59,7.08,3.8,2.38,1.22,4.78,2.43,7.26,3.38.62.23,1.25.45,1.87.61.31.08.63.15.94.18.33.03.67.09.99.1,1.29.08,2.64.01,3.97-.1,2.66-.24,5.32-.64,7.96-1.12-1.29.37-2.6.68-3.92.96-1.32.29-2.64.52-3.99.69-1.34.17-2.68.29-4.07.27-.35,0-.68-.03-1.02-.06-.36-.03-.71-.1-1.04-.18-.67-.16-1.32-.38-1.96-.61-2.55-.94-4.98-2.12-7.39-3.33-2.39-1.25-4.74-2.55-7.07-3.91l-.3-.17.14-.31c.18-.42.53-.74.89-.93.37-.2.75-.3,1.12-.37.75-.13,1.49-.1,2.21-.05,1.45.12,2.85.41,4.24.75,1.39.34,2.75.75,4.1,1.21,1.35.46,2.69.94,4,1.49Z"/>
                <path class="cls-3" d="m13.43,222.65c-2.15-1.06-4.37-1.99-6.65-2.61-1.14-.28-2.33-.5-3.43-.32-.27.05-.53.13-.76.23-.11.06-.22.13-.33.19-.09.09-.19.15-.28.25-.16.19-.3.4-.39.64-.1.24-.14.51-.18.77l-.18-.37c1.95,1.18,3.93,2.31,5.92,3.43,1.98,1.14,3.97,2.25,5.99,3.28.5.27,1.02.51,1.53.76.51.26,1.02.51,1.53.75.51.25,1.03.49,1.55.71.52.23,1.04.45,1.57.64.53.22,1.07.36,1.61.52.27.1.54.13.81.17.28.04.55.1.83.09l1.71-.03.86-.02h.21s.1-.02.1-.02c.04.07-.03.01-.05.03l-.43-.03.43-.02h.06s.02,0,.04.01c0,.09-.02.04-.03.06l-.11.02-.21.03-.85.1-1.71.16c-.29.04-.59,0-.88-.02-.29-.02-.59-.04-.87-.12-.57-.12-1.13-.26-1.68-.45-.55-.17-1.1-.36-1.63-.57-.54-.2-1.08-.41-1.6-.64-1.07-.43-2.1-.93-3.13-1.44-2.06-1.01-4.08-2.1-6.08-3.21-1.99-1.14-3.95-2.31-5.9-3.53l-.22-.14.04-.23c.05-.33.11-.65.24-.97.12-.32.31-.62.55-.88.12-.13.27-.23.4-.34.15-.09.3-.18.46-.24.32-.13.64-.21.96-.25,1.29-.14,2.5.16,3.67.5,1.16.36,2.28.83,3.36,1.36,1.08.53,2.14,1.1,3.15,1.75Z"/>
                <path class="cls-3" d="m2.16,219.58c-.69-.56-1.36-1.15-2.04-1.73l-.13-.11.1-.14c.35-.45.79-.63,1.24-.81.45-.16.92-.24,1.39-.3.94-.09,1.87-.04,2.78.08.44.07.94.13,1.37.25.44.11.88.2,1.32.36.44.15.9.27,1.32.45l1.27.52c.83.38,1.67.74,2.47,1.19.81.43,1.6.87,2.36,1.37.38.25.78.47,1.14.75l1.1.81c.73.55,1.4,1.16,2.08,1.76-.79-.46-1.5-1.01-2.3-1.44l-1.17-.68c-.38-.24-.79-.43-1.18-.65-.78-.44-1.59-.83-2.4-1.22-.4-.21-.81-.38-1.22-.56-.41-.18-.81-.37-1.23-.54l-1.25-.49c-.41-.18-.83-.29-1.24-.44-.41-.15-.85-.26-1.29-.37-.44-.13-.84-.19-1.29-.29-.87-.14-1.75-.24-2.62-.22-.43.03-.87.06-1.28.16-.4.1-.83.28-1.08.52l-.02-.24c.59.67,1.19,1.32,1.77,2Z"/>
                <path class="cls-3" d="m5.84,216.47s-.3-.19-.8-.56c-.49-.38-1.23-.88-2.01-1.65-.1-.1-.2-.2-.29-.35-.03-.1-.13-.11-.1-.41.03-.09.08-.17.15-.2.04-.02.06-.04.12-.05h.03s.1-.03.1-.03c.27-.08.59-.11.91-.14.66-.09,1.3-.01,1.99,0,.67.11,1.37.2,2.07.35.68.21,1.38.42,2.07.63.68.25,1.32.59,1.97.87.32.15.64.3.95.45.31.16.59.36.88.53.57.36,1.11.71,1.63,1.05.26.17.51.33.75.49.22.19.44.36.64.54,1.64,1.38,2.69,2.34,2.69,2.34,0,0-1.22-.75-2.98-1.93-.22-.15-.45-.3-.68-.46-.25-.14-.51-.28-.77-.42-.53-.29-1.08-.6-1.66-.92-.29-.16-.57-.34-.88-.48-.31-.13-.62-.27-.94-.41-.63-.27-1.26-.59-1.91-.82-.66-.21-1.32-.42-1.97-.63-.67-.14-1.32-.27-1.96-.41-.63-.03-1.28-.16-1.84-.11-.28,0-.56,0-.85.06l-.11.02h-.03s.05,0,.07-.02c.03-.03.07-.07.09-.12,0-.16,0-.05.02-.02.05.09.13.2.21.3.66.79,1.31,1.42,1.74,1.86.44.44.69.69.69.69Z"/>
              </g>
            </g>
          </g>
          <g>
            <path class="cls-9" d="m170.88,148.51s-25.72-15.43-37.94,2.57c-12.22,18-20.57,55.94-20.57,55.94,0,0,21.22,24.43,48.22,21.86,27-2.57,10.29-80.37,10.29-80.37Z"/>
            <path class="cls-4" d="m170.77,190.84c-12.44-3.89-24.38-9.23-36.93-12.75-1.32,12.02-1.89,24.02,4.77,34.89,3.83,6.25,8.81,11.27,14.2,15.92,2.53.22,5.13.24,7.78-.02,12.45-1.19,15.6-18.35,15.39-36.52-1.75-.48-3.49-.98-5.22-1.52Z"/>
          </g>
        </g>
        <path class="cls-9" d="m196.6,133.72s-3.86,13.5-28.29,10.93c-24.43-2.57-34.08-1.93-39.22,21.22-5.14,23.15,23.79,36.65,23.79,36.65,0,0-5.79,81.01,1.93,129.88,0,0,63.65,19.93,133.74-8.36,0,0-7.72-79.09-2.57-102.88,5.14-23.79,27.32-40.42,23.46-62.28-3.86-21.86-22.81-29.95-44.03-16.45-21.22,13.5-21.23-5.5-21.23-5.5l-47.58-3.21Z"/>
      </g>
      <g>
        <g>
          <g>
            <path class="cls-5" d="m219.36,160.72c12.68.63,25.62-9.62,33.18-20.58-8.42-1.3-8.36-3.21-8.36-3.21l-47.58-3.21s-1.96,6.81-11.85,9.84c6.74,11.47,21.94,16.54,34.61,17.17Z"/>
            <path class="cls-11" d="m260.58,101.74s4.77-13.81,11.42-9.14c6.64,4.68-1.46,26.66-11.1,27.23s-.32-18.1-.32-18.1Z"/>
            <path class="cls-5" d="m204.08,92.69s2.82-14.23-4.99-13.22c-7.81,1.01-11.87,23.89-4.15,28.84,7.72,4.94,9.14-15.62,9.14-15.62Z"/>
            <path class="cls-11" d="m237.11,57.2s31.51.64,24.43,43.72c-7.07,43.08-25.08,56.58-45.01,49.51-19.93-7.07-31.51-19.93-19.29-59.15,12.22-39.22,39.86-34.08,39.86-34.08Z"/>
          </g>
          <g>
            <path class="cls-2" d="m270.94,59.29s.72-20.01-14.95-27.49l3.47,7.92c-2.84-4.83-8.51-11.21-19.15-13.22l2.41,6.03s-6.75-9.4-23.87-7.72l.48,4.58s-3.62-2.41-4.34-6.03c0,0-6.08,8.96-4.16,18.01-1.27-3.79-2.16-8.72-.42-12.95,0,0-3.56,7.31-2.75,15.16-1.69.06-5.04.64-7.14,4.13-2.89,4.82-2.89,24.11-3.13,37.37,0,0-3.62,22.42-6.99,28.21-3.38,5.79-10.13,20.74-.48,31.1l1.45-2.89s4.34,15.19,24.59,19.77l1.21-2.65,1.21,3.86s22.91-.72,28.93-11.09l-2.17,4.34s12.54-6.27,13.26-15.67c.72-9.4,2.33-38.08,5.79-43.88,6.75-11.33,19.05-28.21,6.75-36.89Zm-42.19,84.87c-9.4.24-5.06-11.09-5.06-11.09l-6.51-.72s-.48,7.96-4.34,7.72c-4.63-.29-9.78-2.61-7.47-13.74,1.45-6.99,2.65-8.92,2.65-8.92,0,0,9.89,5.06,14.47-.24,0,0,3.13,6.03,15.67,6.27,0,0,1.45,20.46-9.4,20.74Zm15.43-7.23c-6.03-1.21,3.62-11.81,0-18.57s-20.01-6.75-20.01-6.75c0,0-10.37-4.1-16.4-3.13-6.43,1.03-.96,18.08-8.92,17.6-7.96-.48,5.3-45.33,5.3-45.33,5.55-2.17,8.92-15.43,8.92-15.43,25.56,7.72,40.99,5.3,40.99,5.3-1.21,15.67,5.3,20.74,5.3,20.74-2.65,21.94-9.16,46.78-15.19,45.57Z"/>
            <path class="cls-10" d="m270.94,59.29s.72-20.01-14.95-27.49l3.47,7.92c-2.07-3.52-5.67-7.87-11.59-10.75.86,1.54,1.58,3.13,2.22,4.63,2.58,6,3.61,12.85,1.25,19.06-2.19,5.74-7.79,11.22-12.96,14.31-2.37,1.42-4.61,2.24-6.83,2.64,14.32,2.29,22.51,1.01,22.51,1.01-1.21,15.67,5.3,20.74,5.3,20.74-2.65,21.94-9.16,46.78-15.19,45.57-6.03-1.21,3.62-11.81,0-18.57-.78-1.46-2.16-2.6-3.84-3.49.99,2.4,1.34,5.28,1.35,7.86,0,4.91-.97,9.75-2.65,14.37-1.75,4.81-3.79,10.83-7.58,14.44-7.15,6.81-17.14,6.76-25.78,3.05-3.24-1.39-6.79-3.34-10.21-5.67,3.52,4.54,9.78,9.94,20.5,12.36l1.21-2.65,1.21,3.86s22.91-.72,28.93-11.09l-2.17,4.34s12.54-6.27,13.26-15.67c.72-9.4,2.33-38.08,5.79-43.88,6.75-11.33,19.05-28.21,6.75-36.89Z"/>
          </g>
        </g>
        <g>
          <path class="cls-3" d="m226.58,88.95c.14.92.16,1.85.12,2.78-.03.93-.16,1.86-.32,2.78-.18.92-.39,1.83-.68,2.73-.29.89-.61,1.78-1,2.64-.39.86-.82,1.69-1.3,2.51-.49.81-1.03,1.58-1.59,2.34-.59.73-1.21,1.45-1.87,2.12-.67.66-1.37,1.28-2.1,1.86l-.14-1.02c2.19,1.26,4.35,2.54,6.47,3.94-2.38-.86-4.72-1.82-7.03-2.81l-.76-.33.62-.7.89-1c.29-.34.58-.68.85-1.03.57-.68,1.08-1.4,1.59-2.12,1.01-1.45,1.91-2.96,2.7-4.54.38-.8.78-1.59,1.11-2.41.33-.82.68-1.65.96-2.49.6-1.69,1.1-3.42,1.48-5.23Z"/>
          <path class="cls-3" d="m211.87,125.84s1.25-.92,3.39-1.78c1.06-.44,2.35-.87,3.77-1.18,1.42-.31,2.97-.52,4.55-.5.79,0,1.58.07,2.35.19.78.11,1.53.32,2.24.55,1.43.48,2.66,1.22,3.55,2.01.46.38.82.79,1.12,1.16.31.37.52.73.71,1.01.32.6.48.95.48.95,0,0-.3-.26-.78-.7-.26-.2-.56-.46-.92-.72-.37-.26-.78-.53-1.25-.79-.47-.26-1-.5-1.56-.72-.56-.22-1.19-.39-1.82-.56-.64-.15-1.32-.25-2.02-.33-.7-.07-1.41-.12-2.13-.12-1.43-.02-2.89.09-4.25.24-1.36.16-2.64.37-3.74.56-2.2.4-3.7.72-3.7.72Z"/>
          <path class="cls-10" d="m234.29,87.26s.14-.38.52-.97c.37-.6.99-1.38,1.88-2.2.46-.39.97-.82,1.57-1.18.58-.4,1.28-.7,2-1.02.36-.16.76-.24,1.16-.36.4-.11.8-.23,1.23-.25.43-.04.86-.1,1.29-.12.44,0,.87.06,1.31.09.89.04,1.72.37,2.54.61.42.12.77.36,1.14.55.36.2.72.4,1.06.6.62.49,1.19,1,1.7,1.48.49.51.85,1.07,1.21,1.55.17.25.33.49.48.71.13.24.24.48.34.7.2.44.35.84.47,1.16.24.65.34,1.03.34,1.03,0,0-.37-.19-.94-.56-.28-.18-.63-.4-.99-.66-.19-.12-.37-.28-.58-.41-.22-.12-.44-.25-.68-.39-.47-.26-.92-.6-1.44-.87-.53-.24-1.07-.51-1.6-.79-.58-.17-1.13-.41-1.71-.58-.6-.08-1.16-.34-1.77-.32-.3-.03-.6-.08-.9-.1-.3.02-.61.01-.91.02-.61-.01-1.21.12-1.82.17-.59.13-1.19.2-1.75.38-.58.12-1.11.31-1.62.45-1.01.33-1.9.63-2.53.87-.64.24-1.01.38-1.01.38Z"/>
          <path class="cls-10" d="m226.34,86.06s-.33-.23-.86-.63c-.52-.38-1.26-.92-2.16-1.56-1.74-1.22-4.01-2.72-6.23-3.14-.55-.13-1.11-.17-1.66-.17-.55,0-1.11.07-1.66.17-.55.11-1.1.26-1.63.45-.27.07-.52.2-.78.3-.26.1-.51.19-.74.31-.48.22-.93.42-1.32.63-.4.2-.77.36-1.06.53-.59.31-.97.47-.97.47,0,0,.12-.38.41-1,.14-.32.34-.69.6-1.09.25-.42.58-.85.97-1.31.39-.46.87-.92,1.44-1.36.57-.44,1.23-.85,1.98-1.17.38-.16.77-.32,1.19-.41l.63-.16.66-.08c.89-.11,1.81-.05,2.69.13.89.18,1.71.5,2.47.89.76.39,1.42.87,2.02,1.37,1.18,1.02,2.03,2.14,2.62,3.17,1.19,2.06,1.36,3.68,1.36,3.68Z"/>
          <path class="cls-7" d="m219.35,94.26c-.55,2.44-1.84,4.23-2.9,4-1.06-.24-1.47-2.41-.92-4.85.55-2.44,1.84-4.23,2.9-4s1.47,2.41.92,4.85Z"/>
          <path class="cls-7" d="m248.26,99.02c-.55,2.44-1.84,4.23-2.9,4s-1.47-2.41-.92-4.85c.55-2.44,1.84-4.23,2.9-4,1.06.24,1.47,2.41.92,4.85Z"/>
          <path class="cls-3" d="m263.32,117.05c.44-.48.82-1.01,1.12-1.56.15-.27.27-.56.35-.84.02-.14.09-.28.08-.42,0-.13.04-.27-.01-.39-.04-.12-.03-.25-.11-.35-.07-.1-.09-.22-.2-.3-.1-.08-.16-.19-.27-.26l-.34-.21c-.1-.08-.26-.11-.39-.17-.14-.05-.26-.11-.4-.15l-.87-.22-.57-.14.08-.61c.16-1.27.33-2.5.58-3.74.26-1.23.53-2.47.89-3.69.36-1.22.77-2.43,1.28-3.62.53-1.18,1.15-2.34,2.01-3.42.44-.54.97-1.03,1.63-1.42.68-.39,1.44-.63,2.38-.51.2.02.87.21,1.19.5.37.3.61.69.76,1.07.28.76.3,1.46.27,2.13-.1,1.34-.42,2.57-.83,3.77-.4,1.2-.9,2.36-1.49,3.46.29-1.22.53-2.44.73-3.65.18-1.21.35-2.44.27-3.59-.03-.57-.13-1.13-.33-1.52-.11-.19-.23-.32-.35-.4-.18-.08-.12-.08-.53-.14h-.01s-.08-.01.06,0h0s-.02,0-.02,0h-.04s-.08,0-.08,0h-.16c-.11.01-.21.05-.31.07-.2.07-.41.16-.6.3-.4.26-.76.65-1.1,1.08-.67.88-1.23,1.93-1.69,3.03-.48,1.09-.9,2.23-1.27,3.39-.36,1.16-.73,2.33-1.04,3.52-.3,1.19-.63,2.38-.88,3.57l-.5-.76.98.38c.16.07.32.17.48.26.16.1.32.16.47.29l.44.37c.14.12.25.31.37.47.13.15.18.37.25.56.09.19.07.4.08.6.03.2-.05.38-.08.57-.03.19-.13.35-.19.52-.07.17-.18.31-.26.46-.09.15-.21.27-.31.41-.43.52-.95.95-1.49,1.31Z"/>
        </g>
      </g>
    </g>
  </g>
</svg>