<?xml version="1.0" encoding="UTF-8"?>
<svg xmlns="http://www.w3.org/2000/svg" viewBox="0 0 459.09 436.78">
  <defs>
    <style>
      .cls-1, .cls-2 {
        fill: #fff;
      }

      .cls-3 {
        fill: #37474f;
      }

      .cls-4 {
        opacity: .6;
      }

      .cls-5 {
        fill: #f5f5f5;
      }

      .cls-6 {
        fill: #455a64;
      }

      .cls-7 {
        opacity: .2;
      }

      .cls-8 {
        fill: #f28f8f;
      }

      .cls-2 {
        opacity: .5;
      }

      .cls-9 {
        fill: #e0e0e0;
      }

      .cls-10 {
        opacity: .35;
      }

      .cls-11 {
        fill: #e6e6e6;
      }

      .cls-12 {
        opacity: .15;
      }

      .cls-13 {
        fill: #27debf;
      }

      .cls-14 {
        fill: none;
        stroke: #e0e0e0;
        stroke-linecap: round;
        stroke-linejoin: round;
        stroke-width: 3px;
      }

      .cls-15 {
        opacity: .1;
      }

      .cls-16 {
        fill: #b16668;
      }

      .cls-17 {
        fill: #263238;
      }

      .cls-18 {
        fill: #ffa8a7;
      }
    </style>
  </defs>
  <g id="Floor">
    <ellipse id="Floor-2" data-name="Floor" class="cls-5" cx="230.65" cy="317.83" rx="228.44" ry="118.95"/>
  </g>
  <g id="Shadows">
    <ellipse id="Shadow" class="cls-11" cx="377.01" cy="298.19" rx="60.93" ry="35.18"/>
    <g id="Shadow-2" data-name="Shadow">
      <path id="Shadow-3" data-name="Shadow" class="cls-11" d="m131.61,277.31c23.31,13.46,24.26,35.68.95,49.14-23.31,13.46-62.06,13.06-85.37-.4-23.31-13.46-23.31-35.28,0-48.74,23.31-13.46,61.11-13.46,84.42,0Z"/>
      <path id="Shadow-4" data-name="Shadow" class="cls-11" d="m321.77,349.84l-76.52-44.18c-2.39-1.38-6.27-1.38-8.66,0l-76.52,44.18c-2.39,1.38-2.39,3.62,0,5l34.85,20.12-32.55,18.78c-6.61,3.82-17.37,3.81-23.98,0l-51.2-29.56c-2.83-1.63-4.38-3.68-4.38-5.77s1.56-4.14,4.38-5.77l45.37-26.2c.96-.55,1.28-1.78.73-2.73-.55-.96-1.78-1.29-2.73-.73l-45.37,26.2c-4.12,2.38-6.38,5.66-6.38,9.23s2.27,6.86,6.38,9.23l51.2,29.56c3.92,2.27,8.96,3.4,13.99,3.4s10.07-1.13,13.99-3.39l34.55-19.94,37.67,21.75c2.39,1.38,6.27,1.38,8.66,0l76.52-44.18c2.39-1.38,2.39-3.62,0-5Z"/>
    </g>
  </g>
  <g id="Character_2" data-name="Character 2">
    <g id="Character">
      <g id="Bottom">
        <path class="cls-18" d="m409.21,281.67s2.78-41.18,1.96-56.36c-.65-12.03-2.28-16.99-2.62-19.71,0,0-2.95-28.05-3.19-51.89-.12-11.47-1.18-19.64-7.47-33.28l-40.43,9.67c-.82,6.06-3.6,46.36-4.26,82.19-.57,31.37.32,58.83.32,58.83l.04,1.65c0,1.83-.4,3.11-1.58,6.06-1.19,2.98-3.37,7.24-6.26,10.36-.83.9-6.6,5.94-7.36,7.02-2.48,2.89,2.65,4.52,6.46,4.01,4.02-.54,10.27-2.06,12.04-4.51,1.18-1.63,2.07-7.35,3.28-9,4.09-5.58,5.77-7.97,5.8-9.76.05-3.22-1.05-4.49-1.45-6.31.33-3.8,8.53-35.05,8.67-46.12.07-5.27-.29-12.53-.29-12.53l6.36-36.52c2.46,9.12,6.78,31.77,8.23,40.46,1.78,10.62,6.41,37.87,9.14,54.14,1.06,6.27,1.55,9.44,2.03,12.35,0,.01.12,1.23.12,1.25.09,1.57,1.23,18.48,1.86,22.02,1.3,7.39,7.87,6.46,8.92.48.9-5.09-.23-20.84-.25-22.77l-.08-1.71Z"/>
        <path class="cls-3" d="m409.21,281.67c1.85.03.63,7.21,1.11,11.82.51,4.95,2.14,8.56,2.6,12.62.53,4.64.12,6.58-1.55,10.39-1.29,2.96-7.79,7.03-10.26,2.79-2.5-4.29-3-9.08-2.72-13.7.29-4.77,0-7.72.1-11.35.09-3.2-2.26-11.37.14-11.83l.12,1.25c.86,1.72,9.64,2.07,10.53-.27l-.08-1.71Z"/>
        <g>
          <path class="cls-17" d="m366.33,280.85c.57,2.31-.02,8.65-.02,8.65,0,0-1,2.19-4.57,3.64l-1.6-8.82,6.19-3.48Z"/>
          <polygon points="361.74 293.14 353.87 290.56 351.98 283.58 360.82 288.05 361.74 293.14"/>
          <path class="cls-3" d="m353.56,272.77l-.04-1.65c-1.07.52-3.42,9.12-6.6,15.03-2.9,5.39-8.66,8.39-10.52,10.74-2.5,3.14,2.36,7.18,10.15,5.51,3.87-.83,9.73-3.3,11.32-5.91s2.13-7.41,3.42-9.33c1.3-1.92,4.38-4.13,5.04-6.32.36-1.2.65-3.86-.02-6.03-.61-1.99-1.14-4.39-1.82-4.18l-.05,1.51c-.52,1.06-2.4,2.3-6.34,2.52-1.87.1-3.69-.19-4.54-1.89Z"/>
        </g>
        <path class="cls-6" d="m356.68,129.61s-2.67,29.67-3.53,55.94c-.86,26.28-.09,60.17-.09,60.17,0,0,2.71,1.94,8.68,2.21,5.97.27,8.04-1.72,8.04-1.72,0,0,3.65-11.91,4.22-20.29.57-8.38,0-13.63,0-13.63l5.33-35.06s6.76,34.52,7.53,38.69c.77,4.17,7.25,41.05,7.25,41.05,0,0,2.54,2.35,9.06,2.22,5.76-.11,7.44-2.18,7.44-2.18,0,0,1.39-22.62,1.07-32.28-.28-8.52-2.22-15.3-2.61-20.82-.39-5.52-.62-36.99-1-48.97-.39-11.98-1.47-22.39-11.7-36.8l-39.67,11.47Z"/>
        <path class="cls-3" d="m379.32,177.23l-4.43-21.96s-7.74-2.02-11.34-6.74c0,0,1,5.24,8.96,8.59l4.72,21.88-1.6,22.61,3.71-24.37Z"/>
      </g>
      <g id="Top">
        <g>
          <path class="cls-18" d="m300.19,124.11c4.08.83,8.51-.63,8.51-.63-1.52-.86-2.7-1.56-3.37-2.23-1.32-1.33-.86-2.72-.4-3.22.36-.39,1.28.53,3.36,1.12,2.66.75,4.59.91,7.15,2.39.96.55,2.09.77,3.2.56,6.24-1.18,20.79-7.99,27.46-11.56,1.37-5.54,3.72-13.71,6.64-23.88,2.69-9.38,7.01-13.49,13.87-13.33l-.95,20.36s-3.28,14.07-7.34,25.56c-.71,2.02-3.56,4.34-8.78,6.27-6.76,2.51-14.92,4.87-24.89,7.6-3.73,1.02-8.65,2.09-12.38,2.41-10.54.9-14.58-2.03-16.02-4.07-4.02-5.7-1.6-8.47,3.93-7.35Z"/>
          <path class="cls-13" d="m384.35,73.17l9.62.75c-2.62,14.03,7.24,21.53,7.24,21.53l-4.29,17.29c.14,2.13,3.69,9.33,7.12,17.08-6.45,8.64-38.09,11.59-48.41,4.01,1.59-8.14,2.78-14.33,3.1-17.41l-.52-11.17c-12.93-10.61,2.68-26.78,8.42-31.92l7.22-.32,10.51.17Z"/>
        </g>
        <g>
          <path class="cls-8" d="m424.86,159.26c-1.41-.98-2.22-3.02-2.06-4.63.17-1.61.54-3.64,1.2-4.42.66-.78,4.87-6.49,6.73-3.17,2.03,3.62,1.59,5.08,1.59,5.08l-7.47,7.13Z"/>
          <path class="cls-3" d="m411.9,235.57c-3.96,0-8.3-1.3-12.75-3.87l-49.93-28.83c-7.71-4.45-13.99-15.32-13.99-24.23v-41.89c0-2.88-1.49-5.46-3.99-6.9-2.5-1.44-5.48-1.44-7.97,0l-17.54,10.12c-.96.55-2.18.22-2.73-.73-.55-.96-.22-2.18.73-2.73l17.54-10.12c3.75-2.16,8.23-2.16,11.97,0,3.75,2.16,5.99,6.04,5.99,10.37v41.89c0,7.5,5.49,17.02,11.99,20.77l49.93,28.83c6.39,3.69,12.31,4.33,16.68,1.81,4.37-2.52,6.77-7.97,6.77-15.35v-53.48c0-9.06,5.79-19.5,13.19-23.77l12.19-7.04c.96-.55,2.18-.22,2.73.73.55.96.22,2.18-.73,2.73l-12.19,7.04c-6.06,3.5-11.19,12.8-11.19,20.3v53.48c0,8.87-3.11,15.55-8.77,18.81-2.38,1.37-5.05,2.05-7.92,2.05Z"/>
          <g id="Plug">
            <g>
              <path class="cls-3" d="m325.6,142.87v3.27c0,5.23-3.67,11.6-8.21,14.21l-30.29,17.49-30.79-17.78v-26.66s29.89-13.81,29.89-13.81c4.75-2.19,12.28-1.85,16.81.76l14.38,8.3c4.53,2.62,8.21,8.98,8.21,14.21Z"/>
              <path class="cls-6" d="m286.2,119.59c4.75-2.19,12.28-1.85,16.81.76l14.38,8.3c4.53,2.62,4.35,6.52-.4,8.71l-29.89,13.8-30.8-17.77,29.89-13.81Z"/>
              <path class="cls-12" d="m290.01,144.76c2.27,1.31,4.1,4.49,4.1,7.11v21.93l-7.01,4.05-30.79-17.78v-26.66s7.79-3.6,7.79-3.6l25.91,14.96Z"/>
              <g>
                <path class="cls-3" d="m253.69,128.81c.74-.43,1.75-.36,2.88.29l30.28,17.48c2.27,1.31,4.1,4.49,4.1,7.11v26.08c0,1.31-.46,2.22-1.21,2.65-.69.39-3.17,1.82-3.85,2.22-.74.44-1.76.38-2.9-.28l-30.28-17.48c-2.27-1.31-4.1-4.49-4.1-7.11v-26.08c0-1.3.45-2.23,1.19-2.65.69-.4,3.19-1.83,3.88-2.23Z"/>
                <path class="cls-6" d="m283,148.8l-30.28-17.48c-2.27-1.31-4.1-.25-4.1,2.37v26.08c0,2.62,1.84,5.8,4.1,7.11l30.28,17.48c2.27,1.31,4.1.25,4.1-2.37v-26.08c0-2.62-1.84-5.8-4.1-7.11Z"/>
              </g>
              <g>
                <path class="cls-13" d="m247.14,179.16v4.51c0,1.83.63,3.1,1.67,3.7.46.26,2.26,1.31,2.73,1.58,1.04.61,2.49.53,4.07-.39l25.05-14.46v-17.78s-2.73-1.57-2.73-1.57l-25.05,14.46c-3.17,1.83-5.74,6.29-5.74,9.95Zm11.33-5.61c.08.32.14.68.14,1.07,0,2.45-1.72,5.44-3.85,6.67-.34.2-.67.32-.98.4-.08-.32-.14-.66-.14-1.05,0-2.45,1.72-5.44,3.85-6.67.34-.2.67-.34.99-.42Z"/>
                <path class="cls-7" d="m251.38,188.84c.06.04.11.08.18.12-.01,0-.01,0-.02,0-.03-.02-.07-.04-.1-.06-.6-.35-2.21-1.28-2.63-1.53-1.05-.58-1.67-1.85-1.67-3.69v-4.51c0-1.84.64-3.87,1.69-5.67l2.72,1.57c-1.04,1.82-1.68,3.83-1.68,5.67v4.51c0,1.43.39,2.52,1.05,3.22.13.15.3.27.46.38Z"/>
                <path class="cls-2" d="m280.64,156.32l-25.03,14.46c-1.59.92-3.02,2.48-4.06,4.28l-2.72-1.57c1.04-1.8,2.47-3.36,4.05-4.28l25.05-14.46,2.71,1.57Z"/>
                <path class="cls-2" d="m251.67,189.03s-.05-.03-.07-.04c.01,0,.03.01.05.02.01.01.01.02.02.02Z"/>
                <path class="cls-7" d="m251.65,189.01s-.04-.02-.05-.02c-.02,0-.03-.02-.04-.03.03.02.06.03.09.05Z"/>
                <path class="cls-7" d="m258.6,174.61c0-.4-.06-.76-.13-1.06h0c1.64-.46,2.86.58,2.86,2.64,0,2.46-1.72,5.44-3.85,6.67-1.78,1.04-3.3.49-3.71-1.17.32-.08.64-.19.99-.4,2.12-1.23,3.85-4.21,3.85-6.67Z"/>
              </g>
              <g>
                <path class="cls-13" d="m224.04,165.82v4.51c0,1.83.63,3.1,1.67,3.7.46.26,2.26,1.31,2.73,1.58,1.04.61,2.49.53,4.07-.39l25.05-14.46v-17.78s-2.73-1.57-2.73-1.57l-25.05,14.46c-3.17,1.83-5.74,6.29-5.74,9.95Zm11.33-5.61c.08.32.14.68.14,1.07,0,2.45-1.72,5.44-3.85,6.67-.34.2-.67.32-.98.4-.08-.32-.14-.66-.14-1.05,0-2.45,1.72-5.44,3.85-6.67.34-.2.67-.34.99-.42Z"/>
                <path class="cls-7" d="m228.56,175.68s-.03-.02-.05-.02c-.02-.02-.05-.03-.07-.04-.47-.28-2.27-1.33-2.72-1.59-1.05-.59-1.67-1.86-1.67-3.7v-4.51c0-.92.16-1.88.45-2.84.29-.96.71-1.92,1.23-2.82h0s2.72,1.57,2.72,1.57c0,0,0,0-.01,0-.26.45-.49.91-.69,1.38-.62,1.42-.98,2.9-.98,4.28v4.51c0,1.42.39,2.52,1.05,3.22.21.22.46.41.73.55Z"/>
                <path class="cls-2" d="m257.55,142.99l-25.03,14.46c-1.6.92-3.02,2.48-4.06,4.28l-2.72-1.56c1.04-1.81,2.47-3.38,4.05-4.3l25.05-14.46,2.71,1.58Z"/>
                <path class="cls-2" d="m228.58,175.7s-.04-.02-.07-.04c.02,0,.03,0,.05.02,0,.01,0,.02.02.02Z"/>
                <path class="cls-7" d="m235.51,161.27c0-.4-.06-.76-.13-1.06h0c1.64-.46,2.86.58,2.86,2.64,0,2.46-1.73,5.44-3.85,6.67-1.78,1.04-3.3.49-3.71-1.17.32-.08.64-.19.99-.4,2.12-1.23,3.85-4.21,3.85-6.67Z"/>
              </g>
            </g>
          </g>
          <g>
            <line class="cls-14" x1="231.62" y1="147.63" x2="227.59" y2="131.95"/>
            <line class="cls-14" x1="220.37" y1="154.17" x2="205.47" y2="142.4"/>
            <line class="cls-14" x1="217.26" y1="167.18" x2="199.85" y2="168.53"/>
          </g>
          <path class="cls-18" d="m438.47,142.94c-.39-3.01-.72-7.27-1.64-11-2.33-9.42-7.39-21.62-9.06-24.82-1.67-3.19-5.44-7.84-8.11-11.77-3.78-5.55-6.43-8.67-9.31-12.43-6.32-8.27-9.01-8.74-16.38-9.01-1,2.63-3.28,13.41,4.11,22.12l15.85,16.7c.9,1.45,10.58,17.99,12.19,24.11.29,1.08.13,2.23-.38,3.23-1.36,2.68-2.17,6.04-2.77,8.75-.47,2.12-1.73,3.8-1.3,4.13.55.42,1.91.94,3.51-.28.77-.59,1.95-2.53,2.73-4.11,1.33,0,2.19.78,2.29,2.18.09,1.23-.47,2.95-.89,5.08-.08.41-.18.89-.38,2.05-.13.63-.26,1.47-.27,2.38,2.02.37,4.08-.85,7.44-4.04,3.04-2.88,3.24-6.75,2.38-13.28Z"/>
        </g>
        <g>
          <path class="cls-17" d="m386.07,68.31c.05-1.97,6.56-6.68,9.85-11.66,3.05-4.61,7.31-17.32-2.79-21.38,0,0,2.17-6.1-1.78-9.68-3.95-3.59-9.29-1.37-10.13.13,0,0-1.47-6.31-8.46-6.65-6.98-.34-8.28,6.18-8.28,6.18,0,0-5.52-2.53-9.22,2.58-3.7,5.11,1.21,9.79,1.21,9.79,0,0-2.22,1.4-1.88,3.9.29,2.16,2.36,2.7,2.61,3.77.24,1.07-1.12,1.71-1.82.94,0,0,.23,1.85,2.56,1.73s4.41-3.29,4.41-3.29l23.72,23.64Z"/>
          <path class="cls-18" d="m364.86,34.63c-2.99,1.3-5.83,5.86-5.78,18.65.04,10.83,3.36,13.57,5.04,14.38,1.68.8,4.95.4,8.14-.09v6.23s-5.77,7.15-.61,10.71c13.32-2.33,14.34-11.07,14.34-11.07l.24-13.58s1.83,1.93,5.05-.9c2.66-2.33,3.62-6.33,1.62-8.52-2-2.19-4.56-2.37-6.88.08,0,0-4.25.27-10.64-3.74-6.54-4.11-8.77-8.07-10.52-12.15Z"/>
          <path class="cls-16" d="m372.54,60.06c.03.89-.63,1.63-1.48,1.65-.85.03-1.57-.67-1.6-1.55-.03-.89.63-1.63,1.48-1.65.85-.03,1.57.67,1.6,1.55Z"/>
          <path class="cls-17" d="m364.3,49.6c.03.82-.59,1.51-1.38,1.54-.79.03-1.46-.62-1.49-1.45-.03-.82.59-1.51,1.38-1.54.79-.03,1.46.62,1.49,1.45Z"/>
          <path class="cls-17" d="m375.38,50.24c.03.89-.63,1.63-1.48,1.65s-1.57-.67-1.6-1.55c-.03-.89.63-1.63,1.48-1.65.85-.03,1.57.67,1.6,1.55Z"/>
          <path class="cls-17" d="m363.3,43.85l-3.05,1.78c.44.9,1.56,1.14,2.4.65.84-.49,1.09-1.54.65-2.44Z"/>
          <path class="cls-17" d="m386,48.76l-.04,6.02c-1.61.05-2.91-1.25-2.9-2.91.01-1.66,1.32-3.05,2.93-3.11Z"/>
          <polygon class="cls-8" points="368.25 48.15 367.63 56.79 363.08 55.72 368.25 48.15"/>
          <path class="cls-8" d="m372.25,67.56c3.35-.39,10.27-2.32,11.4-5.13,0,0-.39,1.77-2.48,3.57-2.09,1.79-8.92,3.66-8.92,3.66v-2.1Z"/>
        </g>
      </g>
      <g id="Question_Marks" data-name="Question Marks">
        <path class="cls-13" d="m412.53.76c1.28.48,2.47,1.13,3.55,1.95,1.08.81,1.96,1.75,2.64,2.8.68,1.05,1.11,2.2,1.3,3.44.19,1.24.03,2.53-.47,3.87-.41,1.09-.94,1.98-1.58,2.66-.65.68-1.36,1.24-2.13,1.68-.77.44-1.58.81-2.41,1.11-.83.3-1.62.58-2.35.84-.74.27-1.42.58-2.04.94-.62.36-1.08.83-1.39,1.4-.17.28-.39.49-.66.64-.27.15-.56.16-.86.05l-3.12-1.17c-.3-.11-.53-.32-.68-.63-.15-.31-.15-.6-.01-.89.46-1.05,1.03-1.9,1.73-2.55.7-.66,1.45-1.2,2.25-1.63s1.62-.78,2.46-1.06c.84-.28,1.62-.55,2.35-.83.73-.27,1.36-.58,1.89-.93.54-.34.91-.8,1.13-1.38.39-1.04.28-2.06-.35-3.06-.62-1-1.66-1.77-3.11-2.32-2.32-.87-4.47-.36-6.43,1.56-.25.25-.48.42-.68.51-.21.09-.49.07-.84-.06l-3.32-1.25c-.25-.09-.43-.25-.54-.49-.12-.23-.12-.48-.02-.76.39-.95,1.05-1.81,1.98-2.6.93-.79,2.03-1.4,3.27-1.86,1.25-.45,2.6-.7,4.07-.74,1.47-.04,2.92.21,4.37.76Zm-7.13,23.9c.3.11.52.32.65.62.14.3.15.6.03.9l-1.36,3.61c-.11.3-.32.52-.62.66-.3.14-.6.15-.9.04l-3.52-1.33c-.3-.11-.52-.32-.66-.62-.14-.3-.15-.6-.03-.9l1.36-3.61c.11-.3.32-.52.62-.66.3-.14.6-.15.9-.03l3.53,1.33Z"/>
        <g>
          <path class="cls-13" d="m414.26,43.86c.22.21.33.47.34.78,0,.31-.09.58-.3.8l-2.5,2.63c-.21.22-.47.33-.78.34-.31,0-.58-.09-.8-.3l-2.57-2.45c-.22-.21-.33-.47-.34-.78,0-.31.09-.58.3-.8l2.5-2.63c.21-.22.47-.33.78-.34.31,0,.58.09.8.3l2.57,2.45Zm14.96-18.13c.94.89,1.73,1.89,2.37,2.99.64,1.1,1.06,2.24,1.27,3.4.2,1.16.16,2.32-.13,3.46-.29,1.15-.9,2.21-1.83,3.19-.76.8-1.54,1.37-2.35,1.72-.81.35-1.63.58-2.46.68-.84.1-1.67.12-2.49.08-.83-.05-1.61-.09-2.35-.13-.74-.04-1.45-.02-2.11.07-.67.08-1.24.32-1.72.7-.25.18-.52.28-.81.31s-.55-.06-.77-.27l-2.27-2.16c-.22-.21-.34-.47-.36-.79-.02-.32.09-.58.32-.78.78-.74,1.59-1.27,2.44-1.58.85-.31,1.7-.51,2.55-.59.85-.08,1.7-.09,2.53-.02.83.07,1.61.11,2.34.14.73.03,1.39,0,1.98-.11.59-.1,1.09-.36,1.48-.78.72-.76.99-1.68.82-2.78-.17-1.1-.79-2.15-1.84-3.15-1.7-1.61-3.75-1.95-6.16-1.01-.31.12-.57.19-.78.2-.22,0-.45-.12-.71-.36l-2.42-2.3c-.18-.17-.28-.38-.29-.62-.02-.24.07-.46.26-.66.68-.68,1.58-1.19,2.68-1.53,1.1-.34,2.27-.48,3.52-.41,1.25.07,2.51.35,3.8.85,1.29.5,2.46,1.26,3.52,2.26Z"/>
          <g class="cls-4">
            <path class="cls-1" d="m414.26,43.86c.22.21.33.47.34.78,0,.31-.09.58-.3.8l-2.5,2.63c-.21.22-.47.33-.78.34-.31,0-.58-.09-.8-.3l-2.57-2.45c-.22-.21-.33-.47-.34-.78,0-.31.09-.58.3-.8l2.5-2.63c.21-.22.47-.33.78-.34.31,0,.58.09.8.3l2.57,2.45Zm14.96-18.13c.94.89,1.73,1.89,2.37,2.99.64,1.1,1.06,2.24,1.27,3.4.2,1.16.16,2.32-.13,3.46-.29,1.15-.9,2.21-1.83,3.19-.76.8-1.54,1.37-2.35,1.72-.81.35-1.63.58-2.46.68-.84.1-1.67.12-2.49.08-.83-.05-1.61-.09-2.35-.13-.74-.04-1.45-.02-2.11.07-.67.08-1.24.32-1.72.7-.25.18-.52.28-.81.31s-.55-.06-.77-.27l-2.27-2.16c-.22-.21-.34-.47-.36-.79-.02-.32.09-.58.32-.78.78-.74,1.59-1.27,2.44-1.58.85-.31,1.7-.51,2.55-.59.85-.08,1.7-.09,2.53-.02.83.07,1.61.11,2.34.14.73.03,1.39,0,1.98-.11.59-.1,1.09-.36,1.48-.78.72-.76.99-1.68.82-2.78-.17-1.1-.79-2.15-1.84-3.15-1.7-1.61-3.75-1.95-6.16-1.01-.31.12-.57.19-.78.2-.22,0-.45-.12-.71-.36l-2.42-2.3c-.18-.17-.28-.38-.29-.62-.02-.24.07-.46.26-.66.68-.68,1.58-1.19,2.68-1.53,1.1-.34,2.27-.48,3.52-.41,1.25.07,2.51.35,3.8.85,1.29.5,2.46,1.26,3.52,2.26Z"/>
          </g>
        </g>
      </g>
    </g>
  </g>
  <g id="Character_1" data-name="Character 1">
    <g id="Character-2" data-name="Character">
      <g id="Bottom-2" data-name="Bottom">
        <g>
          <path class="cls-18" d="m58.44,295.29c3.17,1.93,7.38,2.01,11.35.61l3.05-20.97-14.05-3.59-.35,23.94Z"/>
          <g>
            <path class="cls-17" d="m81.03,315.39c.34.36.13,2.98-.3,3.59-.46.64-2.84,2.59-7.27,2.67-4.23.08-7.97-.7-10.36-2.4-2.39-1.71-3.5-3.5-3.6-5.92-.1-2.41.29-4.72-.76-6.63-.97-1.76-2.29-3.5-2.61-4.45-.69-2.06-.02-5.17-.02-5.17l24.92,18.31Z"/>
            <path class="cls-13" d="m70.76,295.02c.02.9.13,1.79.37,2.7.51,1.9,1.35,3.7,2.3,5.42.49.89,1.01,1.76,1.63,2.58,1.19,1.59,2.71,2.92,3.98,4.45,1.27,1.53,2.32,3.36,2.33,5.32,0,3.32-3.65,4.25-6.44,4.59-2.98.37-6.12.04-8.96-.93-3.16-1.08-5.34-3.69-5.7-6.92-.1-.93,0-1.86-.06-2.79-.13-2.12-1.12-4.11-2.26-5.93-.66-1.06-1.39-2.09-1.8-3.26-.75-2.09.06-4.36.72-6.37.57-1.74,1.03-3.83,1.64-3.63-.02.36-.02,1.13-.02,1.13.18.39.62.68.73,1.13.11.47.24.94.43,1.39.29.68.75,1.32,1.38,1.7.11-1.25.22-2.49.33-3.74.03-.39.08-.8.35-1.08.27-.29.69-.35,1.08-.4,2.36-.31,4.76-.62,7.11-.2.35.06.74.16.93.47.16.25.14.56.11.85-.1,1.2-.21,2.37-.18,3.53Z"/>
            <path class="cls-7" d="m70.76,295.02c.02.9.13,1.79.37,2.7.51,1.9,1.35,3.7,2.3,5.42.49.89,1.01,1.76,1.63,2.58,1.19,1.59,2.71,2.92,3.98,4.45,1.27,1.53,2.32,3.36,2.33,5.32,0,3.32-3.65,4.25-6.44,4.59-2.98.37-6.12.04-8.96-.93-3.16-1.08-5.34-3.69-5.7-6.92-.1-.93,0-1.86-.06-2.79-.13-2.12-1.12-4.11-2.26-5.93-.66-1.06-1.39-2.09-1.8-3.26-.75-2.09.06-4.36.72-6.37.57-1.74,1.03-3.83,1.64-3.63-.02.36-.02,1.13-.02,1.13.18.39.62.68.73,1.13.11.47.24.94.43,1.39.29.68.75,1.32,1.38,1.7.11-1.25.22-2.49.33-3.74.03-.39.08-.8.35-1.08.27-.29.69-.35,1.08-.4,2.36-.31,4.76-.62,7.11-.2.35.06.74.16.93.47.16.25.14.56.11.85-.1,1.2-.21,2.37-.18,3.53Z"/>
            <path class="cls-6" d="m73.84,303.86c-1.18-.99-3.94-1.15-5.46-1.07-1.9.1-3.47.68-4.37,1.27-.4.26-.94.19-1.26-.17h0c-.39-.42-.31-1.08.17-1.4.96-.63,2.68-1.49,4.92-1.53,3.73-.06,4.78.63,4.78.63,0,0,1.64,1.18,1.21,2.26Z"/>
            <path class="cls-6" d="m76.49,307.4c-1.5-1-4.54-1.03-6.06-.95-1.9.1-3.35.77-4.26,1.36-.4.26-.94.18-1.26-.17h0c-.39-.42-.31-1.08.17-1.4.96-.63,2.79-1.63,5.04-1.67,3.73-.06,4.65.75,4.65.75,0,0,1.53.69,1.72,2.07Z"/>
            <path class="cls-6" d="m66.56,297.33c2.58-.13,3.65.22,4.65.64.63.4,1.01,1.46.57,1.7-.8-.5-2.28-.77-4.11-.79-1.23-.01-2.79.4-4.08.89-.33.12-.71.3-1.05.47-.46.22-1.01.02-1.2-.45h0c-.16-.39,0-.84.38-1.04.93-.49,2.75-1.31,4.83-1.41Z"/>
          </g>
        </g>
        <g>
          <path class="cls-18" d="m97.9,287.4c2.44,6.11,6.26,4.23,12.08.71l.88-20.86-14.81-1.37,1.85,21.52Z"/>
          <g>
            <path class="cls-17" d="m132.32,302.11c.31.74.13,2.1-.32,2.94-.46.84-5.09,3.13-11.14,2.4-6.05-.74-10.08-3.41-12.32-5.06s-4.63-2.07-7.62-2.41c-3-.33-5.25-1.38-5.84-2.82-.58-1.44.31-3.82.31-3.82l36.93,8.77Z"/>
            <path class="cls-13" d="m108.76,282.88c.56-.1,1.02-.27,1.61-.45.29-.09.62-.18.9-.06.38.17.51.63.59,1.04.17.83.2,1.9.52,2.67.29.7,1.07,1.37,1.61,1.88,1.41,1.32,3.04,2.39,4.69,3.39,1.93,1.17,3.82,2.1,5.82,3.13,2.04,1.05,4.78,1.77,6.35,2.96,2.3,1.73,2.39,5.78-.41,7.23-2.41,1.25-8.65,2.41-15.02.23-3.47-1.19-7.17-5.16-11.77-5.77-2.93-.39-6.83-.85-8.6-3.18-.65-1.03-.08-3.89.44-7.29.47-3.04.9-7.79,1.86-7.48,0,0,.08.92.08.92,0,0,.88,1.06,1.17,1.41.25.31.54.5.82.78.36.35.64.75,1.04,1.07.48.39,1.07.68,1.69.71.29.01.6-.04.85-.18.5-.29.56-.94.97-1.35.46-.46,1.03-.82,1.63-1.06.85-.34,1.75-.47,2.65-.54.18-.01.34-.04.5-.06Z"/>
            <path class="cls-7" d="m108.76,282.88c.56-.1,1.02-.27,1.61-.45.29-.09.62-.18.9-.06.38.17.51.63.59,1.04.17.83.2,1.9.52,2.67.29.7,1.07,1.37,1.61,1.88,1.41,1.32,3.04,2.39,4.69,3.39,1.93,1.17,3.82,2.1,5.82,3.13,2.04,1.05,4.78,1.77,6.35,2.96,2.3,1.73,2.39,5.78-.41,7.23-2.41,1.25-8.65,2.41-15.02.23-3.47-1.19-7.17-5.16-11.77-5.77-2.93-.39-6.83-.85-8.6-3.18-.65-1.03-.08-3.89.44-7.29.47-3.04.9-7.79,1.86-7.48,0,0,.08.92.08.92,0,0,.88,1.06,1.17,1.41.25.31.54.5.82.78.36.35.64.75,1.04,1.07.48.39,1.07.68,1.69.71.29.01.6-.04.85-.18.5-.29.56-.94.97-1.35.46-.46,1.03-.82,1.63-1.06.85-.34,1.75-.47,2.65-.54.18-.01.34-.04.5-.06Z"/>
            <path class="cls-6" d="m116.02,289.61s-.36-1.15-2.09-1.57c-1.32-.32-3.74.54-5.27,1.67-.63.46-.6,1.41.06,1.82h0c.39.25.89.21,1.26-.07,1.01-.79,3.25-2.19,6.04-1.85Z"/>
            <path class="cls-6" d="m120.04,292.15s-.79-1.4-2.5-1.46c0,0-3.5-.09-5.76,1.81-.58.48-.59,1.36.05,1.76h0c.38.24.86.21,1.21-.07,1.02-.82,3.07-2.54,7-2.03Z"/>
            <path class="cls-6" d="m124.5,294.49s-.9-1.27-2.61-1.34c0,0-3.26-.05-5.53,1.84-.58.48-.59,1.36.05,1.76h0c.38.24.86.21,1.21-.07,1.02-.82,2.94-2.69,6.87-2.19Z"/>
          </g>
        </g>
        <g>
          <path class="cls-6" d="m58.04,238.99c.45-10.07,2.59-15.31,2.9-18.1,0,0,.82-55.39,2.17-72.21l49.6-2.11c.73,17.96,1.39,66.36,1.01,72.76-.37,6.13-2.86,59.3-2.86,59.3-7.01,2.18-14.47-.97-14.47-.97,0,0-4.16-30.24-4.84-36.91-.88-8.63.47-18.01.47-18.01l-3.17-43.07s-3.83,33.39-5.73,45.97c-2.17,14.41-11.46,59.08-11.46,59.08-6.69,1.67-13.21-1.22-13.21-1.22,0,0-1.05-29.92-.4-44.51Z"/>
          <path class="cls-3" d="m88.84,179.68l.94-5.93c2.89-.43,10.21-5,14.54-8.99,0,0-3.92,6.64-12.16,11.21l-.15,46.79-3.17-43.07Z"/>
        </g>
      </g>
      <g id="Top-2" data-name="Top">
        <g>
          <path class="cls-18" d="m109.18,117.39c-3.37-7.69-9.17-20.64-9.17-20.64l-1.47-21.05s3.29.08,6.41.57,8.07,3.47,10.34,9.09c1.68,4.17,10.47,29.61,10.47,29.61l15.3-8.07c3.92-2.49,5.3-6.62,7.81-8.96,2.5-2.34,5.03-2.74,7.77-4.65,2.74-1.91,3.87-3.44,4.56-1.53.7,1.91-2.4,4.84-2.96,5.57-.56.73-3.61,2.29.23,2.49,3.85.2,11.61-3.54,13.47-4.18,1.86-.64,1.69,1.57.73,2.93-.97,1.37-1.07,5.39-2.69,7.65-1.72,2.4-2.65,3.43-6.34,4.85-3.43,1.33-10.54,1.66-14.2,3.78-3.66,2.11-12.52,10.12-18.43,14.23-7.93,5.52-12.39,5.88-15.5,1.48-3.1-4.4-5.13-10.47-6.32-13.18Z"/>
          <path class="cls-9" d="m96.47,75.3c5.19-.4,11.32-.08,14.72,3.02,2.7,2.47,3.72,4.05,6.74,12.53,2.04,5.73,6.28,18.93,6.28,18.93,0,0-9,1.6-15.05,9.2l-9.75-21.91-2.95-21.77Z"/>
          <path class="cls-8" d="m125.74,114.97c-3.39,1.21-5.65,3.59-6.47,4.96,0,0,.36-4.02,5.97-6.39l.49,1.42Z"/>
        </g>
        <path class="cls-5" d="m84.02,74.36s-3.34-.25-7.31.8c-4.57,1.21-12.76,3.51-12.76,3.51-2.6,1.35-3.62,5.86-4.2,8.44-1.88,8.28,3.04,27.04,3.76,34.29.71,7.26-.84,29.62-.84,29.62,5.59,6.47,35.88,10.77,50.63,0,0,0,.64-51.27-.81-58.63-2.2-11.13-5.46-16.42-16.97-17.09l-11.48-.94Z"/>
        <g>
          <g>
            <path class="cls-17" d="m90.49,46.86l-3.29,1.82c-.49-.95-.14-2.12.77-2.62.91-.5,2.04-.14,2.52.8Z"/>
            <path class="cls-17" d="m104.79,48.18l-3-2.31c.61-.86,1.78-1.04,2.61-.4.83.64,1,1.85.39,2.71Z"/>
          </g>
          <g>
            <g>
              <path class="cls-17" d="m75.37,36.39s-3.54.49-4.84,3.16c-1.13,2.32-.72,7.92.78,14.02,1.5,6.1,2.92,9.78,3.81,11.47.88,1.69,2.7,2.16,2.7,2.16l-.18-7.24-.26-5.05s3.24-4.42,3.59-8.05c.46-4.66-.52-6.57-.52-6.57l-5.09-3.9Z"/>
              <path class="cls-17" d="m81.08,43.39c.02,7.47,6.1,13.5,13.56,13.48,7.47-.02,13.06-6.15,13.04-13.62-.02-7.47-5.66-13.45-13.13-13.42-7.47.02-13.5,6.1-13.48,13.56Z"/>
              <path class="cls-18" d="m77.57,54.1c-1.22,1.06-2.21-1.68-3.23-2.74-1.02-1.06-4.36-2.51-6.01.99-1.68,3.57,1.46,8.6,4.02,9.59,2.78,1.07,4.36-1.34,4.36-1.34v16.05c3.85,6.93,10.64,6.72,14.26,6.33,3.63-.39,4.42-4.16,1.77-7.2l-.03-4.96s4.1.61,6.09.29c3.32-.52,5.06-3.03,6.06-6.63,1.6-5.78,2.24-15.51.02-26.74-3.72-2.88-16.63-2.4-24.44,2.55.57,9.96-1.66,12.76-2.88,13.82Z"/>
              <path class="cls-17" d="m105.5,32.07c.5-2.08.73-4.23.67-6.37-.02-.85-.21-1.87-.99-2.18-.76-.3-1.57.26-2.25.72-2.88,1.94-6.46,2.49-9.93,2.68-5.98.33-15.17-.06-18.23,6.51-.85,1.82-.99,3.74.68,5,1.43,1.07,3.25,1.56,4.99,1.86,3.03.53,6.04,1.19,9.09,1.6,3.11.41,6.73.82,9.79-.13,2.57-.79,5.17-1.47,7.09-3.51,1.64-1.75,2.6-4.14,2.62-6.54,0-.34-.08-.77-.41-.85-.17-.04-.34.03-.5.1-.88.37-1.75.75-2.63,1.12Z"/>
              <path class="cls-8" d="m92.72,70.82s-7.43-1.47-10.02-2.84c-1.74-.92-3.17-2.51-3.6-3.54,0,0,.49,2.2,2.05,4.18,1.9,2.42,11.58,4.17,11.58,4.17v-1.97Z"/>
            </g>
            <g>
              <path class="cls-17" d="m91.22,51.78c0,.96-.74,1.73-1.66,1.73-.92,0-1.67-.77-1.67-1.73,0-.96.74-1.73,1.66-1.73.92,0,1.67.77,1.67,1.73Z"/>
              <path class="cls-16" d="m93.62,63.32c0,.9-.7,1.63-1.56,1.63-.87,0-1.57-.73-1.57-1.63,0-.9.7-1.63,1.56-1.63.86,0,1.57.73,1.57,1.63Z"/>
              <path class="cls-17" d="m89.12,46.52l-3.44,2.17c-.58-.99-.29-2.28.66-2.88.95-.6,2.2-.28,2.78.71Z"/>
              <path class="cls-17" d="m101.27,44.4l3.62,1.62c-.41,1.02-1.56,1.49-2.56,1.05-1-.45-1.48-1.64-1.06-2.66Z"/>
              <path class="cls-17" d="m103.18,51.27c0,.92-.72,1.67-1.6,1.67-.89,0-1.61-.75-1.61-1.67,0-.92.72-1.67,1.6-1.67.89,0,1.61.75,1.62,1.67Z"/>
              <polygon class="cls-8" points="95 48.45 95.59 59.57 100.86 58.17 95 48.45"/>
            </g>
          </g>
        </g>
        <g>
          <path class="cls-18" d="m1.6,94.25c1.73.93,8.78,5.89,12.61,6.32,1.62.18,2.06-.08,2-.5-.09-.58-1.11-1.45-1.36-1.92-.43-.81-3.01-4.21-2.01-5.98,1-1.77,1.87-.07,4.25,2.26,2.39,2.33,4.82,3.13,6.91,5.85,2.09,2.72,2.79,7.01,6.24,10.11l13.79,9.4s6.42-29.79,9.24-33.3c2.96-3.69,15.88,4.35,13.18,16.08-2.7,11.73-8.83,32.07-13.09,36.07-2.75,2.59-8.57.14-15.82-6.31-5.73-5.09-13.58-12.77-16.85-15.46-3.27-2.68-10.23-4.17-13.4-6.04-3.41-2.01-4.15-3.17-5.46-5.82-1.23-2.49-.68-6.48-1.41-7.99-.73-1.51-.53-3.71,1.2-2.78Z"/>
          <path class="cls-9" d="m63.95,78.67c4.41,2.77,4.64,6.79,4.86,11.38.2,4.23-.65,10.07-2.52,15.84-1.87,5.79-4.85,16.36-4.85,16.36,0,0-11.54.27-17.48-4.86,0,0,2.71-11.39,4.62-19.96,1.91-8.57,4.24-17.79,15.36-18.76Z"/>
          <path class="cls-8" d="m44.02,119.79c3.14,1.75,4.99,5.51,5.57,7,0,0-.1-5.28-5.25-8.53l-.32,1.53Z"/>
        </g>
      </g>
      <g id="Outlet">
        <polygon class="cls-13" points="163.74 335.92 240.92 380.48 240.92 396.9 163.74 352.34 163.74 335.92"/>
        <polygon class="cls-10" points="163.74 335.92 240.92 380.48 240.92 396.9 163.74 352.34 163.74 335.92"/>
        <polygon class="cls-13" points="318.09 335.92 240.92 380.48 240.92 396.9 318.09 352.34 318.09 335.92"/>
        <polygon class="cls-7" points="318.09 335.92 240.92 380.48 240.92 396.9 318.09 352.34 318.09 335.92"/>
        <polygon class="cls-13" points="318.09 335.92 240.92 291.37 163.74 335.92 240.92 380.48 318.09 335.92"/>
        <polygon class="cls-12" points="318.09 335.92 240.92 291.37 163.74 335.92 240.92 380.48 318.09 335.92"/>
        <polygon class="cls-15" points="240.92 380.48 240.92 375.79 171.86 335.92 163.74 335.92 240.92 380.48"/>
        <polygon class="cls-15" points="240.92 291.37 240.92 296.06 309.97 335.92 318.09 335.92 240.92 291.37"/>
        <polygon class="cls-13" points="318.09 335.92 309.97 335.92 240.92 375.79 240.92 380.48 318.09 335.92"/>
        <polygon class="cls-13" points="240.92 291.37 240.92 296.06 171.86 335.92 163.74 335.92 240.92 291.37"/>
        <path class="cls-3" d="m241.19,316.62l33.16,19.15c2.48,1.43,2.48,3.76,0,5.19l-24.73,14.28c-2.48,1.43-6.5,1.43-8.99,0l-33.16-19.15c-2.48-1.43-2.48-3.76,0-5.19l24.73-14.28c2.48-1.43,6.51-1.43,8.99,0Z"/>
        <path class="cls-6" d="m249.62,355.23l23.92-13.81-32.35-18.68c-2.48-1.43-6.51-1.43-8.99,0l-23.92,13.81,32.35,18.68c2.48,1.43,6.5,1.43,8.99,0Z"/>
        <g>
          <path class="cls-17" d="m221.17,335.95l14.51-8.38c.48-.28,1.25-.28,1.73,0l1.79,1.02c.48.27.48.72,0,1l-14.51,8.38c-.48.28-1.25.28-1.73,0l-1.79-1.03c-.48-.27-.48-.72,0-1Z"/>
          <path class="cls-17" d="m242.84,348.48l14.51-8.38c.48-.28,1.25-.28,1.73,0l1.79,1.02c.48.28.48.72,0,1l-14.51,8.38c-.48.28-1.25.28-1.73,0l-1.79-1.03c-.48-.28-.48-.72,0-1Z"/>
        </g>
        <g>
          <path class="cls-13" d="m207.38,368.35c0-2.79-1.96-6.18-4.37-7.57-1.21-.7-2.3-.76-3.09-.3-.16.09-1.73,1.04-1.89,1.13-.79.46-1.28,1.43-1.28,2.82,0,2.79,1.96,6.18,4.37,7.57,1.21.7,2.3.76,3.09.3.16-.09,1.72-1.03,1.88-1.13.79-.46,1.28-1.43,1.28-2.83Z"/>
          <path class="cls-15" d="m201.12,361.91c2.41,1.39,4.37,4.78,4.37,7.57s-1.96,3.92-4.37,2.52c-2.41-1.39-4.37-4.79-4.37-7.57s1.96-3.92,4.37-2.52Z"/>
        </g>
      </g>
      <g id="Cable">
        <path class="cls-3" d="m150.38,393.85c-5.04,0-10.07-1.13-14-3.4l-51.2-29.56c-4.12-2.38-6.38-5.66-6.38-9.23s2.27-6.86,6.38-9.23l59.32-34.25c6.5-3.75,11.99-13.26,11.99-20.77V99.68c0-1.1.9-2,2-2s2,.9,2,2v187.73c0,9.06-6.15,19.7-13.99,24.23l-59.32,34.25c-2.83,1.63-4.38,3.68-4.38,5.77s1.56,4.14,4.38,5.77l51.2,29.56c6.61,3.82,17.37,3.82,23.98,0l37.75-21.78c.96-.55,2.18-.22,2.73.73.55.96.22,2.18-.73,2.73l-37.75,21.78c-3.92,2.26-8.95,3.39-13.99,3.39Z"/>
      </g>
      <g id="Exclamation_Marks" data-name="Exclamation Marks">
        <path class="cls-13" d="m60.54,27.89c-.05-.28,0-.55.17-.79.17-.25.39-.4.67-.45l4.87-.94c.28-.05.55,0,.79.17.25.17.4.39.45.68l.75,3.9c.05.28,0,.55-.17.79-.16.25-.39.4-.67.45l-4.87.94c-.28.05-.55,0-.79-.17-.25-.17-.4-.39-.45-.67l-.75-3.9Zm-4.06-21.06c-.05-.28,0-.55.17-.79.17-.25.39-.4.67-.45l4.87-.94c.28-.05.55,0,.79.17.25.17.4.39.45.67l3.21,16.65c.05.28,0,.55-.17.79-.17.25-.39.4-.67.45l-4.87.94c-.28.05-.55,0-.79-.17-.25-.17-.4-.39-.45-.67l-3.21-16.65Z"/>
        <path class="cls-13" d="m52.42,44.21c-.19-.21-.28-.47-.27-.77.02-.3.13-.54.35-.73l3.69-3.31c.22-.19.47-.28.77-.26.3.02.54.13.73.35l2.65,2.96c.19.22.28.47.26.77-.02.3-.13.54-.35.73l-3.69,3.31c-.21.19-.47.28-.77.26-.3-.01-.54-.13-.73-.35l-2.65-2.96Zm-14.31-15.97c-.19-.21-.28-.47-.26-.77.02-.3.13-.54.35-.73l3.69-3.31c.22-.19.47-.28.77-.26.3.01.54.13.73.35l11.31,12.63c.19.21.28.47.26.77-.02.3-.13.54-.35.73l-3.69,3.31c-.21.19-.47.28-.77.26-.3-.02-.54-.13-.73-.35l-11.31-12.63Z"/>
        <g class="cls-4">
          <path class="cls-1" d="m52.42,44.21c-.19-.21-.28-.47-.27-.77.02-.3.13-.54.35-.73l3.69-3.31c.22-.19.47-.28.77-.26.3.02.54.13.73.35l2.65,2.96c.19.22.28.47.26.77-.02.3-.13.54-.35.73l-3.69,3.31c-.21.19-.47.28-.77.26-.3-.01-.54-.13-.73-.35l-2.65-2.96Zm-14.31-15.97c-.19-.21-.28-.47-.26-.77.02-.3.13-.54.35-.73l3.69-3.31c.22-.19.47-.28.77-.26.3.01.54.13.73.35l11.31,12.63c.19.21.28.47.26.77-.02.3-.13.54-.35.73l-3.69,3.31c-.21.19-.47.28-.77.26-.3-.02-.54-.13-.73-.35l-11.31-12.63Z"/>
        </g>
      </g>
    </g>
  </g>
</svg>