<?xml version="1.0" encoding="UTF-8"?>
<svg id="Layer_1" data-name="Layer 1" xmlns="http://www.w3.org/2000/svg" viewBox="0 0 268 230.39">
  <defs>
    <style>
      .cls-1 {
        fill: #211d1e;
      }

      .cls-2 {
        fill: #ed1c4d;
      }
    </style>
  </defs>
  <path class="cls-2" d="m63.86,213.33c-2.19-9.82-4.48-19.62-6.55-29.47-2.45-11.63-4.69-23.31-7.08-34.96-1.27-6.17-2.52-12.36-4.11-18.46-.48-1.84-.31-3.52-.33-5.28,1.95-1.03,4.15-.49,6.17-.93,13-2.86,25.96-5.91,38.98-8.65,7.18-1.51,14.33-3.42,21.53-4.49,9.72-1.45,19.07-4.35,28.75-5.89,10.34-1.65,20.48-4.53,30.8-6.49,13.33-2.53,26.6-5.48,39.85-8.39,11.2-2.46,22.41-4.91,33.64-7.24,2.53,5.32,3.39,11.2,4.32,16.82,1.37,8.21,3.53,16.23,4.97,24.38,1.68,9.48,4.12,18.78,5.88,28.24,1.13,6.06,3.12,11.95,3.51,18.16-2.94.26-5.65,1.49-8.47,2.1-15.98,3.47-32.02,6.64-48.02,9.99-11.35,2.38-22.66,4.97-34.02,7.28-11.1,2.26-22.1,4.97-33.17,7.28-10.31,2.15-20.62,4.36-30.98,6.33-5.24.99-10.45,2.52-15.67,3.3-4.98.74-9.78,2.19-14.71,3.04-5.09.87-10.13,2.48-15.29,3.34Zm90.72-38.95c15.14.24,28.53-12.71,28.17-29.82-.28-13.18-12.3-25.85-27.19-26.39-16.41-.59-29.54,14.41-29.12,27.75.49,15.84,12.94,28.18,28.14,28.46Z"/>
  <path class="cls-1" d="m245.51,83.07c-11.23,2.34-22.44,4.78-33.64,7.24-13.25,2.91-26.52,5.86-39.85,8.39-10.32,1.96-20.46,4.84-30.8,6.49-9.68,1.55-19.04,4.44-28.75,5.89-7.19,1.08-14.35,2.98-21.53,4.49-13.03,2.74-25.98,5.79-38.98,8.65-2.02.44-4.22-.09-6.17.93-1.49-.79-.24-2.63-1.4-3.63-.35-.3.08-1.49-.62-1.57-8.14-.91-5.44-7.91-6.83-12.47-.43-1.43-1.36-3.93,1.16-5.2.32-.16.13-.9-.31-1.29-3.04-2.73-3.67-6.77-5.43-10.19-1.65-3.22-.91-5.12,2.45-6.72,3.47-1.66,7.1-2.98,10.48-4.79,1.74-.93,3.14-.74,4.41.27,4.31,3.43,9.21,5.95,13.72,9.08.65.45,1.77.91,1.55,1.81-.21.86-1.36.77-2.17,1.04-1.66.55-2.94,1.47-.64,3.05,2.81,1.94,4.26,5.09,6.58,7.5,3.68,3.82,2.16,7.79-3.03,8.81-3.21.63-7.13.24-7.49,5.24,5.61-.28,10.87-2.85,16.39-3.08,8.55-.35,7.65-7.74,9.97-12.57,1.11-2.31,2.27-4.77,2.83-7.46.35-1.68,2.47-2.23,4.47-2.57,6.44-1.11,12.81-2.61,19.87-4.09-2.47,7.16-5.59,13.22-7.21,19.81,7.08-.28,13.67-3.25,20.7-3.53,1.64-.07,1.65-1.37,1.97-2.22,1.9-4.97,3.76-9.96,5.4-15.02,1-3.11,2.88-4.93,6.09-5.18,4.64-.36,9.06-1.69,13.54-2.75,1.54-.36,3.32-.94,4.51.42.91,1.05-.72,2.02-.85,3.1-.58,4.77-3.36,8.76-4.63,13.31-.73,2.61.38,2.52,2.03,2.17,5.33-1.15,10.61-2.57,15.97-3.55,2.73-.5,4.27-1.81,5.14-4.31,1.74-5.02,3.58-10.01,5.34-15.03.51-1.47,1.33-1.98,2.96-2.5,5.09-1.63,10.61-1.24,15.53-3.49.21-.1.49-.11.73-.1,1.49.05,3.54-.45,4.31.33.88.88-.47,2.58-.98,3.9-1.67,4.27-3.23,8.58-4.9,12.85-.28.71-.71,1.44-.16,2.03.56.6,1.28.11,2-.05,5.32-1.19,10.67-2.23,16-3.38,2.12-.46,3.69-1.22,4.75-3.67,2.1-4.81,3.67-9.78,5.43-14.69.71-2,1.58-3,4-3.46,4.29-.8,8.42-2.21,12.9-2.19,2.6,0,3.57,1.24,4.02,3.34.66,3.09.99,6.26,1.89,9.27.31,1.04.29,1.73-.32,2.2-3.21,2.46-2.69,5.82-2.36,9.15Zm-195.18,26.41c-.03-1.91-1.19-2.41-2.93-2.36-2.08.05-2.27,1.51-2.34,3-.1,1.88,1.15,2.19,2.7,2.22,1.98.03,2.67-.98,2.58-2.86Zm13.2-5.38c-1.87-.57-2.67.97-2.61,2.14.07,1.22.57,3.3,2.51,2.87,1.19-.26,2.92-.54,2.7-2.95-.19-2.07-1.03-2.2-2.6-2.05Zm-19.95-15.7c-1.15-.07-2.39-.22-2.35,1.7.03,1.74.5,2.82,2.5,2.78,1.51-.03,2.7-.28,2.78-2.11.08-2.01-1.12-2.5-2.93-2.37Z"/>
  <path class="cls-1" d="m63.86,213.33c5.16-.86,10.2-2.47,15.29-3.34,4.93-.84,9.74-2.3,14.71-3.04,5.21-.77,10.43-2.31,15.67-3.3,10.36-1.96,20.67-4.18,30.98-6.33,11.07-2.31,22.07-5.02,33.17-7.28,11.36-2.32,22.67-4.91,34.02-7.28,16-3.35,32.05-6.52,48.02-9.99,2.82-.61,5.53-1.85,8.47-2.1,2.35,5.13,2.19,10.85,3.76,16.18.4,1.35-1.44,1.49-2.35,1.68-22.18,4.65-44.35,9.3-66.47,14.22-15.14,3.36-30.4,6.16-45.49,9.76-11.37,2.71-22.76,5.41-34.28,7.33-13.19,2.21-26.09,5.79-39.32,7.76-3.22.48-6.56,1.02-9.48,2.33-3.12,1.39-3.58-.68-3.73-2.4-.42-4.87-2.44-9.38-2.97-14.2Zm67.22-5.74c-12.1,2.02-24.15,4.22-35.82,8.12,4.01-.11,7.9-.82,11.75-1.7,8.03-1.85,16.22-3.02,24.12-5.43,5.76-.51,11.28-2.26,16.98-3.19,8.19-1.34,16.19-3.84,24.34-5.5,9.46-1.93,18.97-3.61,28.39-5.75,12.25-2.79,24.58-5.27,36.88-7.85,1.2-.25,2.41-.33,3.12-1.89-3.74.23-7.12,1.22-10.58,1.98-11.7,2.55-23.47,4.79-35.18,7.26-14.51,3.06-29,6.22-43.49,9.38-6.85,1.49-13.68,3.05-20.51,4.58Zm-42.33,10.04c-1.39-1.86-3.51-1.99-5.23-2.77-.63-.29-2.2-.25-1.73,1,.69,1.85.02,4.93,2.06,5.32,1.53.29,3.36-1.9,4.9-3.55Zm161.52-30.8c1.56-2.82-.57-4.88-.32-7.15.09-.77-.83-.78-1.42-.66-.57.11-.81.69-.61,1.14.91,2,.67,4.41,2.35,6.67Zm-2.52.06c-.89-2.02-.48-4.14-.97-6.11-.14-.55-.61-1.16-1.35-.99-.23.05-.58.65-.5.81,1.07,2.04.04,4.89,2.82,6.29Z"/>
  <path class="cls-1" d="m198.32,11.5c8.12-4.39,16.44-7.56,24.53-11.19,1.89-.85,3.88.16,4.87,2.2,1.43,2.95,3,5.86,4.08,8.94.91,2.59.76,5.02-2.62,6.21-2.92,1.03-5.89,2.25-8.42,4-3.45,2.38-6.05.89-8.81-.97-4.4-2.96-8.8-5.93-13.63-9.19Z"/>
  <path class="cls-1" d="m195,33.01c-6.64,3.02-12.87,5.79-19.04,8.69-1.35.63-2.48,1.29-3.93.29-5-3.43-9.97-6.94-15.11-10.16-2-1.25-1.02-1.94.13-2.46,6.04-2.74,12.13-5.36,18.2-8.03.97-.42,2.04-.56,2.85.05,5.38,4.04,11.54,6.96,16.9,11.62Z"/>
  <path class="cls-1" d="m111.68,49.76c7.35-3.27,14.02-6.32,20.77-9.15.96-.4,2.29-.26,3.49.59,4.63,3.29,9.3,6.54,14.16,9.48,2.02,1.22,1.15,1.94-.04,2.42-6.34,2.57-12.68,5.16-18.8,8.23-.86.43-1.79.11-2.73-.53-5.31-3.58-10.71-7.04-16.85-11.04Z"/>
  <path class="cls-1" d="m68.55,68.99c7.54-3.33,14.48-6.33,21.36-9.47,1.19-.54,1.54.29,2.2.71,5.48,3.51,10.96,7.02,16.89,10.82-5.93,2.67-11.52,5.19-17.12,7.7-.43.19-.98.19-1.32.47-2.73,2.25-4.86,1.1-7.37-.73-4.5-3.27-9.32-6.09-14.63-9.5Z"/>
  <path class="cls-1" d="m40.67,55.5c-1.04.17-1.77-.27-2.24-1.06-2.85-4.8-5.61-9.65-8.54-14.39-.74-1.19-.84-2.12.23-2.86,1.08-.74,2.48-.94,3.28.36,3.12,5.05,6.23,10.11,9.14,15.28.86,1.54-.24,2.5-1.86,2.67Z"/>
  <path class="cls-1" d="m11.16,90.64c2.48,0,4.96.02,7.44,0,1.22-.01,2.29.26,2.41,1.66.11,1.33-.71,1.82-2,2.13-5.6,1.35-11.28.47-16.91.69-1.37.05-1.9-.76-2.08-2.07-.25-1.81,1.21-2.19,2.22-2.26,2.96-.21,5.95-.08,8.92-.08,0-.02,0-.04,0-.06Z"/>
  <path class="cls-1" d="m23.52,72.05c-3.18-1.71-6.59-3.52-9.99-5.37-1.5-.81-2.89-1.85-4.45-2.5-1.48-.62-1.87-1.69-1.43-2.92.6-1.68,2.14-1.65,3.43-1,3.34,1.67,6.62,3.49,9.89,5.3,1.36.75,2.58,1.84,4.01,2.36,1.72.62,1.43,1.85,1.28,3-.2,1.5-1.53.83-2.75,1.12Z"/>
  <path class="cls-1" d="m25.34,113.05c1.98-.35,1.98,1.06,1.65,2.28-.37,1.34-1.53,2.37-2.71,2.9-4.19,1.89-8.11,4.22-11.89,6.8-1.55,1.06-2.8.71-3.66-.76-.92-1.55-.05-2.27,1.41-3.06,4.33-2.36,8.56-4.93,12.76-7.5.79-.48,1.51-.74,2.45-.65Z"/>
  <path class="cls-2" d="m131.08,207.59c6.84-1.53,13.67-3.09,20.51-4.58,14.49-3.15,28.98-6.31,43.49-9.38,11.72-2.47,23.48-4.71,35.18-7.26,3.45-.75,6.83-1.75,10.58-1.98-.71,1.56-1.92,1.63-3.12,1.89-12.3,2.58-24.63,5.06-36.88,7.85-9.42,2.15-18.93,3.82-28.39,5.75-8.15,1.66-16.15,4.16-24.34,5.5-5.69.93-11.22,2.68-16.98,3.19-.02-.33-.03-.66-.05-.98Z"/>
  <path class="cls-2" d="m131.06,146.17c-1.96-14.36,13.29-24.34,23.83-24.06,11.04.3,23.42,8.93,23.57,23.85.14,14.93-12.57,24.5-23.51,24.77-11.46.29-25.83-10.58-23.88-24.56Zm17.05-9.86c-2.25-.06-3.76.15-2.89,2.61,1.93,5.47,2.51,11.25,3.82,16.87.72,3.11,1.96,3.87,4.33,1.81,4.38-3.8,8.57-7.83,12.78-11.82,1.22-1.15,1.71-2.53-.23-3.5-5.78-2.9-12.25-3.7-17.81-5.96Z"/>
</svg>